{
  "accessors": [
    {
      "bufferView": 3,
      "componentType": 5126,
      "count": 1240,
      "max": [
        51.63992691040039,
        118.74423217773438,
        16.111270904541016
      ],
      "min": [
        -51.63992691040039,
        -0.43315666913986206,
        -7.026803970336914
      ],
      "type": "VEC3"
    },
    {
      "bufferView": 3,
      "byteOffset": 14880,
      "componentType": 5126,
      "count": 1240,
      "max": [
        0.9999661445617676,
        0.9997532963752747,
        0.9999709129333496
      ],
      "min": [
        -0.9996356964111328,
        -0.9998989701271057,
        -0.999621570110321
      ],
      "type": "VEC3"
    },
    {
      "bufferView": 2,
      "componentType": 5126,
      "count": 1240,
      "max": [
        0.9957658052444458,
        0.9935764670372009
      ],
      "min": [
        0.0039049386978149414,
        0.0039028706960380077
      ],
      "type": "VEC2"
    },
    {
      "bufferView": 1,
      "componentType": 5125,
      "count": 4026,
      "type": "SCALAR"
    },
    {
      "bufferView": 3,
      "byteOffset": 29760,
      "componentType": 5126,
      "count": 468,
      "max": [
        21.47411346435547,
        160.98904418945313,
        23.51079559326172
      ],
      "min": [
        -21.47411346435547,
        114.25599670410156,
        -17.730226516723633
      ],
      "type": "VEC3"
    },
    {
      "bufferView": 3,
      "byteOffset": 35376,
      "componentType": 5126,
      "count": 468,
      "max": [
        0.9998207092285156,
        0.9997479915618896,
        0.999832034111023
      ],
      "min": [
        -0.9986813068389893,
        -0.999853789806366,
        -0.9994686841964722
      ],
      "type": "VEC3"
    },
    {
      "bufferView": 2,
      "byteOffset": 9920,
      "componentType": 5126,
      "count": 468,
      "max": [
        0.9984343647956848,
        0.9851256012916565
      ],
      "min": [
        0.010742567479610443,
        0.002211540937423706
      ],
      "type": "VEC2"
    },
    {
      "bufferView": 1,
      "byteOffset": 16104,
      "componentType": 5125,
      "count": 1587,
      "type": "SCALAR"
    },
    {
      "bufferView": 3,
      "byteOffset": 40992,
      "componentType": 5126,
      "count": 32,
      "max": [
        21.227161407470703,
        151.00726318359375,
        25.836271286010742
      ],
      "min": [
        -21.227161407470703,
        132.13043212890625,
        -17.983036041259766
      ],
      "type": "VEC3"
    },
    {
      "bufferView": 3,
      "byteOffset": 41376,
      "componentType": 5126,
      "count": 32,
      "max": [
        0.9973730444908142,
        0.17380818724632263,
        0.9847795963287354
      ],
      "min": [
        -0.9973750710487366,
        -0.17995913326740265,
        -0.9836741089820862
      ],
      "type": "VEC3"
    },
    {
      "bufferView": 2,
      "byteOffset": 13664,
      "componentType": 5126,
      "count": 32,
      "max": [
        0.9957277774810791,
        0.9947313070297241
      ],
      "min": [
        0.7789461612701416,
        0.5377625226974487
      ],
      "type": "VEC2"
    },
    {
      "bufferView": 1,
      "byteOffset": 22452,
      "componentType": 5125,
      "count": 84,
      "type": "SCALAR"
    },
    {
      "bufferView": 3,
      "byteOffset": 41760,
      "componentType": 5126,
      "count": 525,
      "max": [
        39.11882781982422,
        118.73677062988281,
        16.204004287719727
      ],
      "min": [
        -39.11882781982422,
        54.753841400146484,
        -20.55990982055664
      ],
      "type": "VEC3"
    },
    {
      "bufferView": 3,
      "byteOffset": 48060,
      "componentType": 5126,
      "count": 525,
      "max": [
        0.9983229637145996,
        0.9986656904220581,
        0.9998102188110352
      ],
      "min": [
        -0.9983226656913757,
        -0.9991177916526794,
        -0.9856202602386475
      ],
      "type": "VEC3"
    },
    {
      "bufferView": 2,
      "byteOffset": 13920,
      "componentType": 5126,
      "count": 525,
      "max": [
        0.9952496886253357,
        0.9409332871437073
      ],
      "min": [
        0.0030651092529296875,
        0.0039094239473342896
      ],
      "type": "VEC2"
    },
    {
      "bufferView": 1,
      "byteOffset": 22788,
      "componentType": 5125,
      "count": 1959,
      "type": "SCALAR"
    },
    {
      "bufferView": 5,
      "componentType": 5126,
      "count": 43,
      "max": [
        1.0,
        0.9982802271842957,
        0.999312698841095,
        0.0,
        0.7737247347831726,
        1.0,
        0.9982698559761047,
        0.0,
        0.9999978542327881,
        0.8603156805038452,
        1.0,
        0.0,
        84.3410873413086,
        72.74443054199219,
        24.28546905517578,
        1.0
      ],
      "min": [
        -0.9998231530189514,
        -0.9982801079750061,
        -0.9993128180503845,
        0.0,
        -0.7737246155738831,
        -0.9876922369003296,
        -0.23097440600395203,
        0.0,
        -0.9999978542327881,
        -0.23238356411457062,
        -0.7765123248100281,
        0.0,
        -84.34111022949219,
        -120.24897766113281,
        -111.85608673095703,
        1.0
      ],
      "type": "MAT4"
    },
    {
      "bufferView": 0,
      "componentType": 5123,
      "count": 1240,
      "type": "VEC4"
    },
    {
      "bufferView": 4,
      "componentType": 5126,
      "count": 1240,
      "max": [
        1.0,
        0.49341410398483276,
        0.3144413232803345,
        0.21650941669940948
      ],
      "min": [
        0.30603712797164917,
        0.0,
        0.0,
        0.0
      ],
      "type": "VEC4"
    },
    {
      "bufferView": 0,
      "byteOffset": 9920,
      "componentType": 5123,
      "count": 468,
      "type": "VEC4"
    },
    {
      "bufferView": 4,
      "byteOffset": 19840,
      "componentType": 5126,
      "count": 468,
      "max": [
        1.0,
        0.18923744559288025,
        0.09503836184740067,
        0.037842560559511185
      ],
      "min": [
        0.735077440738678,
        0.0,
        0.0,
        0.0
      ],
      "type": "VEC4"
    },
    {
      "bufferView": 0,
      "byteOffset": 13664,
      "componentType": 5123,
      "count": 32,
      "type": "VEC4"
    },
    {
      "bufferView": 4,
      "byteOffset": 27328,
      "componentType": 5126,
      "count": 32,
      "max": [
        1.0,
        0.0,
        0.0,
        0.0
      ],
      "min": [
        1.0,
        0.0,
        0.0,
        0.0
      ],
      "type": "VEC4"
    },
    {
      "bufferView": 0,
      "byteOffset": 13920,
      "componentType": 5123,
      "count": 525,
      "type": "VEC4"
    },
    {
      "bufferView": 4,
      "byteOffset": 27840,
      "componentType": 5126,
      "count": 525,
      "max": [
        1.0,
        0.4943337142467499,
        0.20045235753059387,
        0.030075959861278534
      ],
      "min": [
        0.49191540479660034,
        0.0,
        0.0,
        0.0
      ],
      "type": "VEC4"
    }
  ],
  "asset": {
    "extras": {
      "author": "bluruler (https://sketchfab.com/bluruler)",
      "license": "CC-BY-NC-4.0 (http://creativecommons.org/licenses/by-nc/4.0/)",
      "source": "https://sketchfab.com/3d-models/mia-fenimore-cbc34309a42d432e864d2efcce7ee265",
      "title": "Mia Fenimore"
    },
    "generator": "Sketchfab-16.63.0",
    "version": "2.0"
  },
  "bufferViews": [
    {
      "buffer": 0,
      "byteLength": 18120,
      "byteStride": 8,
      "name": "shortBufferViews",
      "target": 34962
    },
    {
      "buffer": 0,
      "byteLength": 30624,
      "byteOffset": 18120,
      "name": "floatBufferViews",
      "target": 34963
    },
    {
      "buffer": 0,
      "byteLength": 18120,
      "byteOffset": 48744,
      "byteStride": 8,
      "name": "floatBufferViews",
      "target": 34962
    },
    {
      "buffer": 0,
      "byteLength": 54360,
      "byteOffset": 66864,
      "byteStride": 12,
      "name": "floatBufferViews",
      "target": 34962
    },
    {
      "buffer": 0,
      "byteLength": 36240,
      "byteOffset": 121224,
      "byteStride": 16,
      "name": "floatBufferViews",
      "target": 34962
    },
    {
      "buffer": 0,
      "byteLength": 2752,
      "byteOffset": 157464,
      "name": "floatBufferViews"
    }
  ],
  "buffers": [
    {
      "byteLength": 160216,
      "uri": "scene.bin"
    }
  ],
  "extensionsUsed": [
    "KHR_materials_unlit",
    "KHR_materials_emissive_strength"
  ],
  "images": [
    {
      "uri": "textures/material_baseColor.png"
    },
    {
      "uri": "textures/material_emissive.png"
    },
    {
      "uri": "textures/Mia_head_baseColor.png"
    },
    {
      "uri": "textures/Mia_head_emissive.png"
    }
  ],
  "materials": [
    {
      "alphaMode": "BLEND",
      "doubleSided": true,
      "emissiveFactor": [
        1.0,
        1.0,
        1.0
      ],
      "emissiveTexture": {
        "index": 1
      },
      "extensions": {
        "KHR_materials_emissive_strength": {
          "emissiveStrength": 1.25
        },
        "KHR_materials_unlit": {}
      },
      "name": "material",
      "pbrMetallicRoughness": {
        "baseColorFactor": [
          0.0,
          0.0,
          0.0,
          1.0
        ],
        "baseColorTexture": {
          "index": 0
        },
        "metallicFactor": 0.0
      }
    },
    {
      "alphaMode": "BLEND",
      "doubleSided": true,
      "emissiveFactor": [
        1.0,
        1.0,
        1.0
      ],
      "emissiveTexture": {
        "index": 3
      },
      "extensions": {
        "KHR_materials_emissive_strength": {
          "emissiveStrength": 1.25
        },
        "KHR_materials_unlit": {}
      },
      "name": "Mia_head",
      "pbrMetallicRoughness": {
        "baseColorFactor": [
          0.0,
          0.0,
          0.0,
          1.0
        ],
        "baseColorTexture": {
          "index": 2
        },
        "metallicFactor": 0.0
      }
    }
  ],
  "meshes": [
    {
      "name": "mia_body_Mia_0",
      "primitives": [
        {
          "attributes": {
            "JOINTS_0": 17,
            "NORMAL": 1,
            "POSITION": 0,
            "TEXCOORD_0": 2,
            "TEXCOORD_1": 2,
            "WEIGHTS_0": 18
          },
          "indices": 3,
          "material": 0,
          "mode": 4
        }
      ]
    },
    {
      "name": "0",
      "primitives": [
        {
          "attributes": {
            "JOINTS_0": 19,
            "NORMAL": 5,
            "POSITION": 4,
            "TEXCOORD_0": 6,
            "TEXCOORD_1": 6,
            "WEIGHTS_0": 20
          },
          "indices": 7,
          "material": 1,
          "mode": 4
        }
      ]
    },
    {
      "name": "mia_goggles_Mia_head_0",
      "primitives": [
        {
          "attributes": {
            "JOINTS_0": 21,
            "NORMAL": 9,
            "POSITION": 8,
            "TEXCOORD_0": 10,
            "TEXCOORD_1": 10,
            "WEIGHTS_0": 22
          },
          "indices": 11,
          "material": 1,
          "mode": 4
        }
      ]
    },
    {
      "name": "mia_coat_Mia_0",
      "primitives": [
        {
          "attributes": {
            "JOINTS_0": 23,
            "NORMAL": 13,
            "POSITION": 12,
            "TEXCOORD_0": 14,
            "TEXCOORD_1": 14,
            "WEIGHTS_0": 24
          },
          "indices": 15,
          "material": 0,
          "mode": 4
        }
      ]
    }
  ],
  "nodes": [
    {
      "children": [
        1
      ],
      "matrix": [
        1.0,
        0.0,
        0.0,
        0.0,
        0.0,
        2.220446049250313e-16,
        -1.0,
        0.0,
        0.0,
        1.0,
        2.220446049250313e-16,
        0.0,
        0.0,
        0.0,
        0.0,
        1.0
      ],
      "name": "Sketchfab_model"
    },
    {
      "children": [
        2
      ],
      "matrix": [
        0.009999999776482582,
        0.0,
        0.0,
        0.0,
        0.0,
        0.0,
        0.009999999776482582,
        0.0,
        0.0,
        -0.009999999776482582,
        0.0,
        0.0,
        0.0,
        0.0,
        0.0,
        1.0
      ],
      "name": "443ac39996b94d098b8a6d7c4e4951e2.fbx"
    },
    {
      "children": [
        3
      ],
      "name": "RootNode"
    },
    {
      "children": [
        4
      ],
      "matrix": [
        1.0,
        0.0,
        0.0,
        0.0,
        0.0,
        -4.371139006309477e-08,
        -0.999999999999999,
        0.0,
        0.0,
        0.999999999999999,
        -4.371139006309477e-08,
        0.0,
        0.0,
        0.0,
        0.0,
        1.0
      ],
      "name": "root"
    },
    {
      "children": [
        5,
        7,
        9,
        11,
        13,
        6,
        8,
        10,
        12
      ],
      "name": "Object_4"
    },
    {
      "children": [
        14
      ],
      "name": "_rootJoint"
    },
    {
      "matrix": [
        1.000000000049916,
        -1.5556966251242116e-14,
        -2.258505780669291e-14,
        0.0,
        -2.2585058750841837e-14,
        -9.889361795653611e-12,
        -1.0000000418472446,
        0.0,
        1.5556966900545408e-14,
        1.0000000418014139,
        -9.889361795200376e-12,
        0.0,
        -1.0013371538236202e-11,
        7.030104285377092e-07,
        2.9642789023398564e-07,
        1.0
      ],
      "name": "Object_6"
    },
    {
      "mesh": 0,
      "name": "Object_7",
      "skin": 0
    },
    {
      "matrix": [
        1.000000000049916,
        -1.5556966251242116e-14,
        -2.258505780669291e-14,
        0.0,
        -2.2585058750841837e-14,
        -9.889361795653611e-12,
        -1.0000000418472446,
        0.0,
        1.5556966900545408e-14,
        1.0000000418014139,
        -9.889361795200376e-12,
        0.0,
        -1.0013371538236202e-11,
        7.030104285377092e-07,
        2.9642789023398564e-07,
        1.0
      ],
      "name": "Object_8"
    },
    {
      "mesh": 1,
      "name": "Object_9",
      "skin": 0
    },
    {
      "matrix": [
        1.000000000049916,
        -1.5556966251242116e-14,
        -2.258505780669291e-14,
        0.0,
        -2.2585058750841837e-14,
        -9.889361795653611e-12,
        -1.0000000418472446,
        0.0,
        1.5556966900545408e-14,
        1.0000000418014139,
        -9.889361795200376e-12,
        0.0,
        -1.0013371538236202e-11,
        7.030104285377092e-07,
        2.9642789023398564e-07,
        1.0
      ],
      "name": "Object_10"
    },
    {
      "mesh": 2,
      "name": "Object_11",
      "skin": 0
    },
    {
      "matrix": [
        1.000000000049916,
        -1.5556966251242116e-14,
        -2.258505780669291e-14,
        0.0,
        -2.2585058750841837e-14,
        -9.889361795653611e-12,
        -1.0000000418472446,
        0.0,
        1.5556966900545408e-14,
        1.0000000418014139,
        -9.889361795200376e-12,
        0.0,
        -1.0013371538236202e-11,
        7.030104285377092e-07,
        2.9642789023398564e-07,
        1.0
      ],
      "name": "Object_12"
    },
    {
      "mesh": 3,
      "name": "Object_13",
      "skin": 0
    },
    {
      "children": [
        15,
        44,
        50
      ],
      "name": "root.x_01",
      "rotation": [
        0.7753374576568604,
        -2.258588438053266e-06,
        -2.772823108898592e-06,
        0.631547212600708
      ],
      "scale": [
        1.0,
        0.9999997615814209,
        1.0
      ],
      "translation": [
        8.409055786764985e-13,
        -1.090353012084961,
        78.67942810058594
      ]
    },
    {
      "children": [
        16
      ],
      "name": "spine_01.x_014",
      "rotation": [
        -0.09687864035367966,
        -0.003282206365838647,
        0.000320173247018829,
        0.9952907562255859
      ],
      "scale": [
        1.0,
        1.0,
        1.000000238418579
      ],
      "translation": [
        -4.2938586375385057e-07,
        12.09664535522461,
        -0.05951714515686035
      ]
    },
    {
      "children": [
        17
      ],
      "name": "spine_02.x_00",
      "rotation": [
        -0.028987104073166847,
        0.003300027921795845,
        9.569201938575134e-05,
        0.9995743632316589
      ],
      "scale": [
        0.9999998211860657,
        0.9999998211860657,
        0.9999999403953552
      ],
      "translation": [
        -4.6779469187185896e-09,
        8.018267631530762,
        -4.7677860948169837e-07
      ]
    },
    {
      "children": [
        18,
        20,
        32
      ],
      "name": "spine_03.x_015",
      "rotation": [
        -0.035393938422203064,
        -1.1941565958295541e-07,
        -4.2917420728372235e-09,
        0.9993734359741211
      ],
      "scale": [
        1.0,
        1.0,
        0.9999999403953552
      ],
      "translation": [
        4.263256414560601e-14,
        8.015449523925781,
        -2.384185791015625e-07
      ]
    },
    {
      "children": [
        19
      ],
      "name": "neck.x_016",
      "rotation": [
        0.17521017789840698,
        0.006622069049626589,
        0.0011785116512328386,
        0.9845080971717834
      ],
      "translation": [
        -3.9968028886505635e-15,
        7.987517833709717,
        -4.0531158447265625e-06
      ]
    },
    {
      "name": "head.x_017",
      "rotation": [
        -0.11628396809101105,
        -0.006714280694723129,
        -0.0007782010361552238,
        0.9931930303573608
      ],
      "scale": [
        1.0,
        1.0000001192092896,
        0.9999998807907104
      ],
      "translation": [
        2.2547544276108056e-08,
        5.916112422943115,
        2.3817062810849166e-07
      ]
    },
    {
      "children": [
        21
      ],
      "name": "shoulder.l_030",
      "rotation": [
        0.5102155804634094,
        0.4265519082546234,
        0.5638278126716614,
        -0.489726185798645
      ],
      "scale": [
        1.000000238418579,
        1.0000001192092896,
        1.000000238418579
      ],
      "translation": [
        2.1105666160583496,
        4.837723731994629,
        0.7101635932922363
      ]
    },
    {
      "children": [
        22,
        23
      ],
      "name": "arm_stretch.l_031",
      "rotation": [
        -0.050043363124132156,
        -0.4263499677181244,
        0.0891018733382225,
        0.8987671732902527
      ],
      "scale": [
        1.0000001192092896,
        1.0,
        0.9999999403953552
      ],
      "translation": [
        3.0081719160079956e-07,
        6.411787986755371,
        4.788395017385483e-06
      ]
    },
    {
      "name": "arm_twist.l_041",
      "rotation": [
        -4.3213370304329146e-07,
        -5.159528200238128e-07,
        8.195617340334138e-08,
        1.0
      ],
      "scale": [
        0.9999999403953552,
        0.9999999403953552,
        0.9999999403953552
      ],
      "translation": [
        -5.245208740234375e-06,
        4.470348358154297e-07,
        -4.172325134277344e-06
      ]
    },
    {
      "children": [
        24,
        25
      ],
      "name": "forearm_stretch.l_032",
      "rotation": [
        -3.7845038036721235e-07,
        -2.3726228093323698e-08,
        -0.12482442706823349,
        0.9921788573265076
      ],
      "scale": [
        0.9999999403953552,
        1.0000004768371582,
        1.0000001192092896
      ],
      "translation": [
        4.0531158447265625e-06,
        15.472161293029785,
        4.0531158447265625e-06
      ]
    },
    {
      "name": "forearm_twist.l_040",
      "rotation": [
        1.1932820598303806e-07,
        0.44012901186943054,
        -2.2223605178339767e-09,
        0.8979346752166748
      ],
      "scale": [
        0.9999998807907104,
        0.9999998807907104,
        0.9999998807907104
      ],
      "translation": [
        7.152557373046875e-06,
        8.415493965148926,
        -8.344650268554688e-06
      ]
    },
    {
      "children": [
        26,
        29
      ],
      "name": "hand.l_033",
      "rotation": [
        0.0008344205562025309,
        0.4379349648952484,
        0.06104791909456253,
        0.8969311118125916
      ],
      "scale": [
        1.0,
        0.9999997615814209,
        1.0
      ],
      "translation": [
        2.384185791015625e-06,
        16.830995559692383,
        1.1920928955078125e-06
      ]
    },
    {
      "children": [
        27
      ],
      "name": "c_index1.l_037",
      "rotation": [
        -0.039266396313905716,
        0.003254333045333624,
        -0.045295894145965576,
        0.9981963038444519
      ],
      "scale": [
        1.0000001192092896,
        1.000000238418579,
        1.0000001192092896
      ],
      "translation": [
        0.1783508062362671,
        5.323212146759033,
        0.6263306736946106
      ]
    },
    {
      "children": [
        28
      ],
      "name": "c_index2.l_038",
      "rotation": [
        -0.022163601592183113,
        -0.0003076512075494975,
        -2.1112895410624333e-05,
        0.9997543096542358
      ],
      "translation": [
        2.980232238769531e-07,
        2.2512600421905518,
        -3.863126039505005e-06
      ]
    },
    {
      "name": "c_index3.l_039",
      "rotation": [
        0.12448816001415253,
        4.792983963852748e-05,
        0.0025807558558881283,
        0.9922178387641907
      ],
      "scale": [
        0.9999999403953552,
        1.0000001192092896,
        1.0
      ],
      "translation": [
        -4.76837158203125e-07,
        2.230191469192505,
        -8.270144462585449e-07
      ]
    },
    {
      "children": [
        30
      ],
      "name": "c_thumb1.l_034",
      "rotation": [
        -0.15931932628154755,
        -0.2071424275636673,
        -0.3870021104812622,
        0.8842729926109314
      ],
      "scale": [
        0.9999999403953552,
        0.9999999403953552,
        0.9999998807907104
      ],
      "translation": [
        1.208463191986084,
        0.024659112095832825,
        -0.5309277772903442
      ]
    },
    {
      "children": [
        31
      ],
      "name": "c_thumb2.l_035",
      "rotation": [
        -0.06000543385744095,
        -0.03734241798520088,
        -0.1110096424818039,
        0.9913030862808228
      ],
      "scale": [
        1.000000238418579,
        0.9999999403953552,
        0.9999999403953552
      ],
      "translation": [
        -2.86102294921875e-06,
        6.809322834014893,
        -5.9604644775390625e-06
      ]
    },
    {
      "name": "c_thumb3.l_036",
      "rotation": [
        0.08197751641273499,
        0.06083719804883003,
        0.14482568204402924,
        0.9841768145561218
      ],
      "translation": [
        4.291534423828125e-06,
        2.0925183296203613,
        1.4210854715202004e-14
      ]
    },
    {
      "children": [
        33
      ],
      "name": "shoulder.r_018",
      "rotation": [
        -0.5102155804634094,
        0.4265519082546234,
        0.5638278126716614,
        0.4897262156009674
      ],
      "scale": [
        1.000000238418579,
        1.0000001192092896,
        1.000000238418579
      ],
      "translation": [
        -2.1105666160583496,
        4.837723731994629,
        0.7101635932922363
      ]
    },
    {
      "children": [
        34,
        35
      ],
      "name": "arm_stretch.r_019",
      "rotation": [
        -0.05004320666193962,
        0.42635002732276917,
        -0.08910226821899414,
        0.8987671136856079
      ],
      "scale": [
        1.0,
        1.000000238418579,
        0.9999998211860657
      ],
      "translation": [
        -3.5762786865234375e-07,
        6.411787986755371,
        4.789792001247406e-06
      ]
    },
    {
      "name": "arm_twist.r_029",
      "rotation": [
        -8.456411251245299e-07,
        2.2910504071660398e-07,
        4.023316080292716e-07,
        1.0
      ],
      "scale": [
        0.9999998807907104,
        0.9999998807907104,
        0.9999997615814209
      ],
      "translation": [
        -1.0728836059570313e-05,
        -2.0265579223632813e-06,
        -3.1054019927978516e-05
      ]
    },
    {
      "children": [
        36,
        37
      ],
      "name": "forearm_stretch.r_020",
      "rotation": [
        -6.67100437112822e-07,
        6.485123549282434e-08,
        0.12482476979494095,
        0.9921789169311523
      ],
      "scale": [
        0.9999998211860657,
        1.0000009536743164,
        1.0000001192092896
      ],
      "translation": [
        1.138448715209961e-05,
        15.472168922424316,
        -6.318092346191406e-06
      ]
    },
    {
      "name": "forearm_twist.r_028",
      "rotation": [
        1.3080692440325947e-07,
        -0.43996375799179077,
        4.0492299291372547e-08,
        0.898015558719635
      ],
      "scale": [
        1.0000001192092896,
        1.0000001192092896,
        1.0000001192092896
      ],
      "translation": [
        -1.4066696166992188e-05,
        8.415505409240723,
        -1.6927719116210938e-05
      ]
    },
    {
      "children": [
        38,
        41
      ],
      "name": "hand.r_021",
      "rotation": [
        0.0008344277739524841,
        -0.4379349946975708,
        -0.06104792281985283,
        0.8969311118125916
      ],
      "scale": [
        1.0000001192092896,
        0.9999994039535522,
        1.0
      ],
      "translation": [
        7.152557373046875e-07,
        16.830997467041016,
        5.125999450683594e-06
      ]
    },
    {
      "children": [
        39
      ],
      "name": "c_index1.r_025",
      "rotation": [
        -0.03926636278629303,
        -0.003254361916333437,
        0.045295897871255875,
        0.9981963038444519
      ],
      "translation": [
        -0.178367018699646,
        5.323223114013672,
        0.626327633857727
      ]
    },
    {
      "children": [
        40
      ],
      "name": "c_index2.r_026",
      "rotation": [
        -0.0221636351197958,
        0.00030764919938519597,
        2.1129162632860243e-05,
        0.9997543096542358
      ],
      "scale": [
        1.0,
        1.0000001192092896,
        1.0
      ],
      "translation": [
        4.440892098500626e-16,
        2.2512564659118652,
        -4.842877388000488e-06
      ]
    },
    {
      "name": "c_index3.r_027",
      "rotation": [
        0.1244882196187973,
        -4.793085463461466e-05,
        -0.0025807416532188654,
        0.9922177195549011
      ],
      "scale": [
        0.9999998807907104,
        0.9999999403953552,
        0.9999999403953552
      ],
      "translation": [
        5.960464477539063e-08,
        2.2301859855651855,
        1.1175869474300271e-07
      ]
    },
    {
      "children": [
        42
      ],
      "name": "c_thumb1.r_022",
      "rotation": [
        -0.15931916236877441,
        0.20714208483695984,
        0.3870020806789398,
        0.884273111820221
      ],
      "scale": [
        0.9999997615814209,
        0.9999998807907104,
        0.9999998211860657
      ],
      "translation": [
        -1.208473563194275,
        0.024674445390701294,
        -0.5309129953384399
      ]
    },
    {
      "children": [
        43
      ],
      "name": "c_thumb2.r_023",
      "rotation": [
        -0.06000535562634468,
        0.03734246641397476,
        0.11100973188877106,
        0.9913031458854675
      ],
      "scale": [
        0.9999999403953552,
        0.9999998211860657,
        0.9999998211860657
      ],
      "translation": [
        3.814697265625e-06,
        6.80932092666626,
        -4.76837158203125e-06
      ]
    },
    {
      "name": "c_thumb3.r_024",
      "rotation": [
        0.0819774717092514,
        -0.060837212949991226,
        -0.14482569694519043,
        0.9841768145561218
      ],
      "scale": [
        0.9999998211860657,
        0.9999999403953552,
        1.0
      ],
      "translation": [
        3.337860107421875e-06,
        2.0925230979919434,
        5.0067901611328125e-06
      ]
    },
    {
      "children": [
        45,
        49
      ],
      "name": "thigh_stretch.l_02",
      "rotation": [
        0.6824824810028076,
        0.12830184400081635,
        0.7085438370704651,
        0.12538710236549377
      ],
      "scale": [
        0.9999998807907104,
        1.000000238418579,
        0.9999987483024597
      ],
      "translation": [
        8.838882446289063,
        -3.9025187492370605,
        3.3073790073394775
      ]
    },
    {
      "children": [
        46,
        48
      ],
      "name": "leg_stretch.l_03",
      "rotation": [
        -2.4750149152374945e-10,
        -4.001658027164012e-08,
        0.19466666877269745,
        0.980869472026825
      ],
      "scale": [
        0.9999999403953552,
        0.9999995231628418,
        0.9999997615814209
      ],
      "translation": [
        2.384185791015625e-07,
        35.32941818237305,
        1.9818544387817383e-06
      ]
    },
    {
      "children": [
        47
      ],
      "name": "foot.l_04",
      "rotation": [
        0.4274407625198364,
        0.5620474219322205,
        -0.4115492105484009,
        0.5762156844139099
      ],
      "scale": [
        1.0000007152557373,
        1.0,
        1.0000001192092896
      ],
      "translation": [
        -2.682209014892578e-07,
        35.695777893066406,
        7.683411240577698e-07
      ]
    },
    {
      "name": "toes_01.l_05",
      "rotation": [
        -0.0019275459926575422,
        0.9849812388420105,
        0.17256733775138855,
        0.0053812614642083645
      ],
      "scale": [
        0.9999999403953552,
        0.9999995827674866,
        0.9999999403953552
      ],
      "translation": [
        8.149072527885437e-09,
        8.651670455932617,
        3.427267074584961e-07
      ]
    },
    {
      "name": "leg_twist.l_06",
      "rotation": [
        -2.9103794929596916e-09,
        1.7177082156649703e-07,
        -2.0096196706731462e-08,
        1.0
      ],
      "scale": [
        0.9999999403953552,
        1.0,
        1.0000001192092896
      ],
      "translation": [
        1.1324882507324219e-06,
        17.84789276123047,
        1.1771917343139648e-06
      ]
    },
    {
      "name": "thigh_twist.l_07",
      "rotation": [
        -3.58559226754096e-08,
        1.1958762513586407e-07,
        6.257365736672682e-10,
        1.0
      ],
      "scale": [
        1.0000001192092896,
        0.9999999403953552,
        1.0
      ],
      "translation": [
        -8.940696716308594e-08,
        -1.3731420040130615e-05,
        9.238719940185547e-07
      ]
    },
    {
      "children": [
        51,
        55
      ],
      "name": "thigh_stretch.r_08",
      "rotation": [
        -0.6824774146080017,
        0.12830062210559845,
        0.7085488438606262,
        -0.1253877878189087
      ],
      "scale": [
        1.0000001192092896,
        1.0,
        0.9999984502792358
      ],
      "translation": [
        -8.838834762573242,
        -3.90252685546875,
        3.3075058460235596
      ]
    },
    {
      "children": [
        52,
        54
      ],
      "name": "leg_stretch.r_09",
      "rotation": [
        1.745516620133003e-08,
        -8.330318657101543e-09,
        -0.19466595351696014,
        0.9808695912361145
      ],
      "scale": [
        0.9999996423721313,
        0.9999998211860657,
        0.9999996423721313
      ],
      "translation": [
        -7.152557373046875e-07,
        35.32942581176758,
        -1.0281801223754883e-06
      ]
    },
    {
      "children": [
        53
      ],
      "name": "foot.r_010",
      "rotation": [
        0.4274407625198364,
        -0.5620473027229309,
        0.41154929995536804,
        0.5762155652046204
      ],
      "scale": [
        1.0000008344650269,
        1.0000003576278687,
        1.0000001192092896
      ],
      "translation": [
        1.3113021850585938e-06,
        35.69578170776367,
        -1.494772732257843e-06
      ]
    },
    {
      "name": "toes_01.r_011",
      "rotation": [
        0.0019276784732937813,
        0.9849811792373657,
        0.1725672483444214,
        -0.005381237715482712
      ],
      "scale": [
        0.9999997615814209,
        0.9999998211860657,
        1.0
      ],
      "translation": [
        5.91157004237175e-07,
        8.651670455932617,
        3.427267074584961e-07
      ]
    },
    {
      "name": "leg_twist.r_012",
      "rotation": [
        -1.781153891045051e-08,
        -1.0948858175652276e-07,
        2.0881991247279075e-08,
        1.0
      ],
      "scale": [
        1.000000238418579,
        1.000000238418579,
        1.0000001192092896
      ],
      "translation": [
        -1.5795230865478516e-06,
        17.84789276123047,
        -3.0547380447387695e-07
      ]
    },
    {
      "name": "thigh_twist.r_013",
      "rotation": [
        2.8405331420344737e-08,
        1.1801603250205517e-07,
        6.524351192638278e-08,
        1.0
      ],
      "scale": [
        1.0,
        1.0,
        0.9999999403953552
      ],
      "translation": [
        1.4901161193847656e-07,
        -2.255663275718689e-06,
        -1.6987323760986328e-06
      ]
    }
  ],
  "samplers": [
    {
      "magFilter": 9728,
      "minFilter": 9728,
      "wrapS": 10497,
      "wrapT": 10497
    },
    {
      "magFilter": 9729,
      "minFilter": 9987,
      "wrapS": 10497,
      "wrapT": 10497
    }
  ],
  "scene": 0,
  "scenes": [
    {
      "name": "Sketchfab_Scene",
      "nodes": [
        0
      ]
    }
  ],
  "skins": [
    {
      "inverseBindMatrices": 16,
      "joints": [
        5,
        14,
        15,
        16,
        17,
        18,
        19,
        20,
        21,
        22,
        23,
        24,
        25,
        26,
        27,
        28,
        29,
        30,
        31,
        32,
        33,
        34,
        35,
        36,
        37,
        38,
        39,
        40,
        41,
        42,
        43,
        44,
        45,
        46,
        47,
        48,
        49,
        50,
        51,
        52,
        53,
        54,
        55
      ],
      "skeleton": 5
    }
  ],
  "textures": [
    {
      "sampler": 0,
      "source": 0
    },
    {
      "sampler": 0,
      "source": 1
    },
    {
      "sampler": 1,
      "source": 2
    },
    {
      "sampler": 1,
      "source": 3
    }
  ]
}
